<svg width="500" height="500" xmlns="http://www.w3.org/2000/svg">

 <g>
  <title>background</title>
  <rect fill="none" id="canvas_background" height="402" width="582" y="-1" x="-1"/>
 </g>
 <g>
  <title>Layer 1</title>
  <path id="svg_1" fill-rule="evenodd" fill="#ffffff" d="m165.396,352.839c7.002,19.166 27.984,29.065 46.972,22.073l91.681,-31.521l12.987,54.236c2.816,13.079 21.447,24.985 35.164,24.985l52.239,0c9.991,0 18.172,8.181 18.172,18.172l0,4.543c0,12.537 10.18,22.712 22.715,22.712c12.537,0 22.712,-10.175 22.712,-22.712l0,-45.426l0,-45.431c0,-12.537 -10.175,-22.711 -22.712,-22.711c-12.535,0 -22.715,10.174 -22.715,22.711l0,4.543c0,9.991 -8.181,18.172 -18.172,18.172l-27.255,0c-9.991,0 -15.724,-8.447 -18.172,-18.172l-8.09,-31.71l93.036,-31.977c18.989,-6.992 28.802,-28.26 21.896,-47.521l-68.866,-191.517c-6.904,-19.169 -27.896,-29.075 -46.882,-22.079l-231.593,79.587c-18.986,7 -28.8,28.257 -21.888,47.521l15.625,43.52l-34.338,12.625l-1.641,-4.361c-4.268,-11.992 -17.442,-18.17 -29.253,-13.811c-11.905,4.362 -17.992,17.63 -13.716,29.71l40.698,113.122c4.268,12.085 17.444,18.26 29.342,13.893c11.818,-4.452 17.993,-17.711 13.627,-29.704l-3.265,-8.181l13.63,-7.63l16.714,-4.276l21.348,46.615zm157.276,-243.676c0,-12.536 10.175,-22.713 22.716,-22.713c12.535,0 22.711,10.177 22.711,22.713c0,12.539 -10.176,22.713 -22.711,22.713c-12.541,0 -22.716,-10.174 -22.716,-22.713z" clip-rule="evenodd"/>
 </g>
</svg>