<svg width="23.999999999999996" height="23.999999999999996" xmlns="http://www.w3.org/2000/svg">

 <g>
  <title>background</title>
  <rect fill="none" id="canvas_background" height="402" width="582" y="-1" x="-1"/>
 </g>
 <g>
  <title>Layer 1</title>
  <path fill="#ffffff" id="svg_2" d="m16.3,19.5l-13,0c-1.6,0 -2.9,-1.3 -2.9,-2.9l0,-9.1c0,-1.6 1.3,-2.9 2.9,-2.9l13,0c1.6,0 3,1.3 3,2.9l0,1.2l3.5,-2.7c0.2,-0.1 0.4,-0.1 0.5,-0.1c0.2,0.1 0.3,0.3 0.3,0.4l0,11.2c0,0.2 -0.1,0.4 -0.3,0.4c-0.2,0.1 -0.4,0.1 -0.5,-0.1l-3.5,-2.7l0,1.2c0,1.8 -1.3,3.2 -3,3.2zm-12.9,-14c-1.1,0 -1.9,0.9 -1.9,1.9l0,9.1c0,1.1 0.9,1.9 1.9,1.9l13,0c1.1,0 2,-0.9 2,-1.9l0,-2.2c0,-0.2 0.1,-0.4 0.3,-0.4c0.2,-0.1 0.4,-0.1 0.5,0.1l3.5,2.7l0,-9.3l-3.5,2.7c-0.2,0.1 -0.4,0.1 -0.5,0.1c-0.2,-0.1 -0.3,-0.3 -0.3,-0.4l0,-2.3c0,-1.1 -0.9,-1.9 -2,-1.9l-13,0l0,-0.1z"/>
 </g>
</svg>